name rise30.6535peak61.5555fall82.9339.mot
datacolumns 19
datarows 55
range 6.249977 6.339976
endheader
time	ground_force1_vx	ground_force1_vy	ground_force1_vz	ground_force1_px	ground_force1_py	ground_force1_pz	ground_force2_vx	ground_force2_vy	ground_force2_vz	ground_force2_px	ground_force2_py	ground_force2_pz	ground_torque1_x	ground_torque1_y	ground_torque1_z	ground_torque2_x	ground_torque2_y	ground_torque2_z	
6.249977	-20.368743	137.558778	-4.494187	0.056155	0.000000	0.074440	77.088363	653.651709	-42.974163	0.357682	0.000000	-0.084701	0.000000	2.662112	0.000000	0.000000	-15.594444	0.000000	
6.251642	-18.637524	130.683790	-4.480395	0.056956	0.000000	0.074208	76.823927	659.165221	-43.287633	0.356741	0.000000	-0.084695	0.000000	2.396729	0.000000	0.000000	-15.762645	0.000000	
6.253308	-16.915969	124.018145	-4.451859	0.057937	0.000000	0.073970	76.529060	664.595341	-43.593260	0.355797	0.000000	-0.084690	0.000000	2.134373	0.000000	0.000000	-15.928942	0.000000	
6.254970	-15.209790	117.531047	-4.407452	0.059117	0.000000	0.073726	76.205057	669.939465	-43.891726	0.354850	0.000000	-0.084685	0.000000	1.875904	0.000000	0.000000	-16.093638	0.000000	
6.256636	-13.526604	111.183219	-4.345577	0.060518	0.000000	0.073475	75.853214	675.195008	-44.183685	0.353899	0.000000	-0.084680	0.000000	1.622520	0.000000	0.000000	-16.257019	0.000000	
6.258306	-11.876059	104.928593	-4.264262	0.062163	0.000000	0.073216	75.474832	680.359410	-44.469770	0.352945	0.000000	-0.084675	0.000000	1.375769	0.000000	0.000000	-16.419346	0.000000	
6.259974	-10.269805	98.716945	-4.161316	0.064080	0.000000	0.072948	75.071206	685.430142	-44.750581	0.351986	0.000000	-0.084670	0.000000	1.137547	0.000000	0.000000	-16.580862	0.000000	
6.261639	-8.721296	92.497404	-4.034526	0.066301	0.000000	0.072669	74.643628	690.404711	-45.026687	0.351024	0.000000	-0.084666	0.000000	0.910051	0.000000	0.000000	-16.741782	0.000000	
6.263306	-7.245383	86.222724	-3.881916	0.068861	0.000000	0.072378	74.193379	695.280670	-45.298626	0.350057	0.000000	-0.084663	0.000000	0.695714	0.000000	0.000000	-16.902300	0.000000	
6.264980	-5.857717	79.854044	-3.702030	0.071803	0.000000	0.072073	73.721729	700.055624	-45.566895	0.349086	0.000000	-0.084660	0.000000	0.497097	0.000000	0.000000	-17.062584	0.000000	
6.266638	-4.573966	73.365805	-3.494219	0.075176	0.000000	0.071752	73.229930	704.727234	-45.831957	0.348110	0.000000	-0.084658	0.000000	0.316754	0.000000	0.000000	-17.222775	0.000000	
6.268306	-3.408883	66.750355	-3.258926	0.079037	0.000000	0.071413	72.719216	709.293226	-46.094233	0.347129	0.000000	-0.084656	0.000000	0.157070	0.000000	0.000000	-17.382990	0.000000	
6.269968	-2.375295	60.021728	-2.997912	0.083455	0.000000	0.071052	72.190800	713.751396	-46.354105	0.346143	0.000000	-0.084655	0.000000	0.020087	0.000000	0.000000	-17.543320	0.000000	
6.271641	-1.483085	53.218032	-2.714408	0.088510	0.000000	0.070666	71.645871	718.099618	-46.611910	0.345152	0.000000	-0.084655	0.000000	-0.092672	0.000000	0.000000	-17.703830	0.000000	
6.273310	-0.738280	46.401932	-2.413148	0.094298	0.000000	0.070252	71.085589	722.335849	-46.867945	0.344155	0.000000	-0.084656	0.000000	-0.180363	0.000000	0.000000	-17.864558	0.000000	
6.274973	-0.142335	39.658791	-2.100272	0.100939	0.000000	0.069804	70.511089	726.458135	-47.122463	0.343153	0.000000	-0.084658	0.000000	-0.242946	0.000000	0.000000	-18.025518	0.000000	
6.276643	0.308260	33.092242	-1.783067	0.108574	0.000000	0.069317	69.923472	730.464616	-47.375672	0.342146	0.000000	-0.084660	0.000000	-0.281258	0.000000	0.000000	-18.186698	0.000000	
6.278309	0.621989	26.817271	-1.469563	0.117381	0.000000	0.068783	69.323809	734.353534	-47.627737	0.341132	0.000000	-0.084664	0.000000	-0.297012	0.000000	0.000000	-18.348062	0.000000	
6.279970	0.811879	20.951291	-1.168003	0.000000	0.000000	0.000000	68.713135	738.123236	-47.878780	0.340112	0.000000	-0.084668	0.000000	-0.088347	0.000000	0.000000	-18.509550	0.000000	
6.281642	0.894664	15.604162	-0.886243	0.000000	0.000000	0.000000	68.092450	741.772180	-48.128878	0.339086	0.000000	-0.084674	0.000000	-0.087566	0.000000	0.000000	-18.671080	0.000000	
6.283317	0.889642	10.868491	-0.631164	0.000000	0.000000	0.000000	67.462717	745.298939	-48.378069	0.338054	0.000000	-0.084680	0.000000	-0.080974	0.000000	0.000000	-18.832545	0.000000	
6.284969	0.817358	6.811607	-0.408172	0.000000	0.000000	0.000000	66.824862	748.702208	-48.626345	0.337016	0.000000	-0.084687	0.000000	-0.070214	0.000000	0.000000	-18.993821	0.000000	
6.286644	0.698293	3.470278	-0.220857	0.000000	0.000000	0.000000	66.179771	751.980803	-48.873661	0.335971	0.000000	-0.084696	0.000000	-0.056880	0.000000	0.000000	-19.154763	0.000000	
6.288317	0.000000	0.000000	0.000000	0.000000	0.000000	0.000000	65.528291	755.133668	-49.119930	0.334919	0.000000	-0.084705	0.000000	0.000000	0.000000	0.000000	-19.315205	0.000000	
6.289973	0.000000	0.000000	0.000000	0.000000	0.000000	0.000000	64.871230	758.159879	-49.365028	0.333861	0.000000	-0.084715	0.000000	0.000000	0.000000	0.000000	-19.474969	0.000000	
6.291641	0.000000	0.000000	0.000000	0.000000	0.000000	0.000000	64.209355	761.058644	-49.608796	0.332796	0.000000	-0.084726	0.000000	0.000000	0.000000	0.000000	-19.633856	0.000000	
6.293302	0.000000	0.000000	0.000000	0.000000	0.000000	0.000000	63.543393	763.829308	-49.851039	0.331725	0.000000	-0.084737	0.000000	0.000000	0.000000	0.000000	-19.791657	0.000000	
6.294972	0.000000	0.000000	0.000000	0.000000	0.000000	0.000000	62.874032	766.471354	-50.091531	0.330647	0.000000	-0.084750	0.000000	0.000000	0.000000	0.000000	-19.948150	0.000000	
6.296641	0.000000	0.000000	0.000000	0.000000	0.000000	0.000000	62.201918	768.984403	-50.330015	0.329561	0.000000	-0.084763	0.000000	0.000000	0.000000	0.000000	-20.103100	0.000000	
6.298304	0.000000	0.000000	0.000000	0.000000	0.000000	0.000000	61.527659	771.368217	-50.566206	0.328469	0.000000	-0.084778	0.000000	0.000000	0.000000	0.000000	-20.256265	0.000000	
6.299969	0.000000	0.000000	0.000000	0.000000	0.000000	0.000000	60.851824	773.622701	-50.799795	0.327371	0.000000	-0.084792	0.000000	0.000000	0.000000	0.000000	-20.407396	0.000000	
6.301637	0.000000	0.000000	0.000000	0.000000	0.000000	0.000000	60.174942	775.747900	-51.030447	0.326265	0.000000	-0.084808	0.000000	0.000000	0.000000	0.000000	-20.556238	0.000000	
6.303304	0.000000	0.000000	0.000000	0.000000	0.000000	0.000000	59.497508	777.744004	-51.257809	0.325153	0.000000	-0.084824	0.000000	0.000000	0.000000	0.000000	-20.702530	0.000000	
6.304977	0.000000	0.000000	0.000000	0.000000	0.000000	0.000000	58.819977	779.611340	-51.481511	0.324034	0.000000	-0.084841	0.000000	0.000000	0.000000	0.000000	-20.846013	0.000000	
6.306644	0.000000	0.000000	0.000000	0.000000	0.000000	0.000000	58.142770	781.350379	-51.701165	0.322909	0.000000	-0.084859	0.000000	0.000000	0.000000	0.000000	-20.986425	0.000000	
6.308310	0.000000	0.000000	0.000000	0.000000	0.000000	0.000000	57.466274	782.961731	-51.916374	0.321778	0.000000	-0.084876	0.000000	0.000000	0.000000	0.000000	-21.123506	0.000000	
6.309972	0.000000	0.000000	0.000000	0.000000	0.000000	0.000000	56.790843	784.446144	-52.126729	0.320640	0.000000	-0.084895	0.000000	0.000000	0.000000	0.000000	-21.256999	0.000000	
6.311635	0.000000	0.000000	0.000000	0.000000	0.000000	0.000000	56.116799	785.804503	-52.331819	0.319496	0.000000	-0.084914	0.000000	0.000000	0.000000	0.000000	-21.386652	0.000000	
6.313304	0.000000	0.000000	0.000000	0.000000	0.000000	0.000000	55.444435	787.037826	-52.531224	0.318346	0.000000	-0.084933	0.000000	0.000000	0.000000	0.000000	-21.512220	0.000000	
6.314969	0.000000	0.000000	0.000000	0.000000	0.000000	0.000000	54.774015	788.147263	-52.724527	0.317191	0.000000	-0.084952	0.000000	0.000000	0.000000	0.000000	-21.633464	0.000000	
6.316636	0.000000	0.000000	0.000000	0.000000	0.000000	0.000000	54.105776	789.134094	-52.911313	0.316031	0.000000	-0.084972	0.000000	0.000000	0.000000	0.000000	-21.750156	0.000000	
6.318305	0.000000	0.000000	0.000000	0.000000	0.000000	0.000000	53.439929	789.999724	-53.091171	0.314865	0.000000	-0.084992	0.000000	0.000000	0.000000	0.000000	-21.862077	0.000000	
6.319975	0.000000	0.000000	0.000000	0.000000	0.000000	0.000000	52.776663	790.745682	-53.263698	0.313695	0.000000	-0.085012	0.000000	0.000000	0.000000	0.000000	-21.969020	0.000000	
6.321641	0.000000	0.000000	0.000000	0.000000	0.000000	0.000000	52.116146	791.373614	-53.428503	0.312520	0.000000	-0.085032	0.000000	0.000000	0.000000	0.000000	-22.070792	0.000000	
6.323305	0.000000	0.000000	0.000000	0.000000	0.000000	0.000000	51.458522	791.885283	-53.585207	0.311341	0.000000	-0.085052	0.000000	0.000000	0.000000	0.000000	-22.167215	0.000000	
6.324974	0.000000	0.000000	0.000000	0.000000	0.000000	0.000000	50.803922	792.282563	-53.733447	0.310159	0.000000	-0.085072	0.000000	0.000000	0.000000	0.000000	-22.258122	0.000000	
6.326638	0.000000	0.000000	0.000000	0.000000	0.000000	0.000000	50.152455	792.567436	-53.872878	0.308973	0.000000	-0.085091	0.000000	0.000000	0.000000	0.000000	-22.343367	0.000000	
6.328301	0.000000	0.000000	0.000000	0.000000	0.000000	0.000000	49.504220	792.741984	-54.003175	0.307785	0.000000	-0.085111	0.000000	0.000000	0.000000	0.000000	-22.422817	0.000000	
6.329977	0.000000	0.000000	0.000000	0.000000	0.000000	0.000000	48.859298	792.808392	-54.124037	0.306595	0.000000	-0.085130	0.000000	0.000000	0.000000	0.000000	-22.496359	0.000000	
6.331635	0.000000	0.000000	0.000000	0.000000	0.000000	0.000000	48.217762	792.768936	-54.235187	0.305403	0.000000	-0.085149	0.000000	0.000000	0.000000	0.000000	-22.563897	0.000000	
6.333303	0.000000	0.000000	0.000000	0.000000	0.000000	0.000000	47.579673	792.625981	-54.336373	0.304209	0.000000	-0.085168	0.000000	0.000000	0.000000	0.000000	-22.625355	0.000000	
6.334974	0.000000	0.000000	0.000000	0.000000	0.000000	0.000000	46.945082	792.381978	-54.427374	0.303015	0.000000	-0.085186	0.000000	0.000000	0.000000	0.000000	-22.680674	0.000000	
6.336639	0.000000	0.000000	0.000000	0.000000	0.000000	0.000000	46.314036	792.039457	-54.507997	0.301821	0.000000	-0.085204	0.000000	0.000000	0.000000	0.000000	-22.729816	0.000000	
6.338301	0.000000	0.000000	0.000000	0.000000	0.000000	0.000000	45.686571	791.601022	-54.578080	0.300627	0.000000	-0.085221	0.000000	0.000000	0.000000	0.000000	-22.772763	0.000000	
6.339976	0.000000	0.000000	0.000000	0.000000	0.000000	0.000000	45.062722	791.069348	-54.637494	0.299435	0.000000	-0.085237	0.000000	0.000000	0.000000	0.000000	-22.809514	0.000000	
